HIERARCHY
ROOT pelvis
{
  OFFSET 0 100 0
  CHANNELS 6 Xposition Yposition Zposition Zrotation Xrotation Yrotation
  JOINT pelvis_right_femur
  {
    OFFSET -10.78128 -3.44521 -0.5502486
    CHANNELS 3 Zrotation Xrotation Yrotation
    JOINT right_femur_tibia
    {
      OFFSET -0.8047443 -44.0398 -0.1307829
      CHANNELS 3 Zrotation Xrotation Yrotation
      JOINT right_tibia_foot
      {
        OFFSET 3.006224 -47.83518 -5
        CHANNELS 3 Zrotation Xrotation Yrotation
        End Site
        {
          OFFSET 0 -5 15
        }
      }
    }
  }
  JOINT pelvis_left_femur
  {
    OFFSET 10.78128 -3.44521 -0.5502486
    CHANNELS 3 Zrotation Xrotation Yrotation
    JOINT left_femur_tibia
    {
      OFFSET 0.8047443 -44.0398 -0.1307829
      CHANNELS 3 Zrotation Xrotation Yrotation
      JOINT left_tibia_foot
      {
        OFFSET -4.370144 -48.10324 -4.275266
        CHANNELS 3 Zrotation Xrotation Yrotation
        End Site
        {
          OFFSET 0 -5 15
        }
      }
    }
  }
  JOINT pelvis_spine1
  {
    OFFSET 0 6.468898 -3.129235
    CHANNELS 3 Zrotation Xrotation Yrotation
    JOINT spine1
    {
      OFFSET 0 23.15396 4.99043
      CHANNELS 3 Zrotation Xrotation Yrotation
      JOINT spine2
      {
        OFFSET 0 20.79997 -5.064912
        CHANNELS 3 Zrotation Xrotation Yrotation
        JOINT neck
        {
          OFFSET 0 14.38658 9.616178
          CHANNELS 3 Zrotation Xrotation Yrotation
          End Site
          {
            OFFSET 0 20 0
          }
        }
      }
      JOINT right_manubrium
      {
        OFFSET -5.722621 16.35077 3.967754
        CHANNELS 3 Zrotation Xrotation Yrotation
        JOINT right_clavicle
        {
          OFFSET -13.16364 1.694482 -4.693211
          CHANNELS 3 Zrotation Xrotation Yrotation
          JOINT right_humerus
          {
            OFFSET -28.5034 -0.3100689 -2.792744
            CHANNELS 3 Zrotation Xrotation Yrotation
            JOINT right_radius
            {
              OFFSET -25.15693 0.02248979 -1.271978
              CHANNELS 3 Zrotation Xrotation Yrotation
              End Site
              {
                OFFSET -15 0 0
              }
            }
          }
        }
      }
      JOINT left_manubrium
      {
        OFFSET 5.722621 16.35077 3.967754
        CHANNELS 3 Zrotation Xrotation Yrotation
        JOINT left_clavicle
        {
          OFFSET 13.16364 1.694482 -4.693211
          CHANNELS 3 Zrotation Xrotation Yrotation
          JOINT left_humerus
          {
            OFFSET 29.39168 -1.063119 -2.237045
            CHANNELS 3 Zrotation Xrotation Yrotation
            JOINT left_radius
            {
              OFFSET 24.59957 -0.9528479 0.9047498
              CHANNELS 3 Zrotation Xrotation Yrotation
              End Site
              {
                OFFSET 15 -0 -0
              }
            }
          }
        }
      }
    }
  }
}
MOTION
Frames: 11
Frame Time: 0.0416666666667
-30.58939 120.8422 798.9677 -10.26777 -9.387924 -44.54768 6.131519 16.34252 -1.390315 -0 17.84671 -0 -12.77105 -0.8256159 0.4193001 3.174648 -12.59656 -4.2392 -0 15.68884 -0 1.716472 -1.450542 17.48575 2.490544 -4.088961 7.124873 -1.378715 18.85506 -4.098158 1.840891 20.19349 2.229899 2.025632 -15.96936 3.812324 -3.49008 -31.29162 12.78384 92.00463 9.735048 -10.23321 -0 0 28.3461 -27.80108 14.43928 13.93208 4.279789 -24.12919 -10.10139 -95.01228 5.173749 35.66787 0 0 -3.214729 11.06737 16.93606 -1.503645
-34.11324 120.8075 804.1143 -10.42732 -9.210009 -45.53504 6.131519 16.34252 -1.390315 -0 17.84671 -0 -12.77105 -0.8256159 0.4193001 3.174648 -12.59656 -4.2392 -0 15.68884 -0 1.716472 -1.450542 17.48575 2.490544 -4.088961 7.124873 -1.378715 18.85506 -4.098158 1.840891 20.19349 2.229899 2.025632 -15.96936 3.812324 -3.49008 -31.29162 12.78384 92.00463 9.735048 -10.23321 -0 0 28.3461 -27.80108 14.43928 13.93208 4.279789 -24.12919 -10.10139 -95.01228 5.173749 35.66787 0 0 -3.214729 11.06737 16.93606 -1.503645
-37.72553 120.7728 809.1992 -10.58366 -9.029408 -46.5214 6.131519 16.34252 -1.390315 -0 17.84671 -0 -12.77105 -0.8256159 0.4193001 3.174648 -12.59656 -4.2392 -0 15.68884 -0 1.716472 -1.450542 17.48575 2.490544 -4.088961 7.124873 -1.378715 18.85506 -4.098158 1.840891 20.19349 2.229899 2.025632 -15.96936 3.812324 -3.49008 -31.29162 12.78384 92.00463 9.735048 -10.23321 -0 0 28.3461 -27.80108 14.43928 13.93208 4.279789 -24.12919 -10.10139 -95.01228 5.173749 35.66787 0 0 -3.214729 11.06737 16.93606 -1.503645
-41.42518 120.738 814.2209 -10.73675 -8.846178 -47.50676 6.131519 16.34252 -1.390315 -0 17.84671 -0 -12.77105 -0.8256159 0.4193001 3.174648 -12.59656 -4.2392 -0 15.68884 -0 1.716472 -1.450542 17.48575 2.490544 -4.088961 7.124873 -1.378715 18.85506 -4.098158 1.840891 20.19349 2.229899 2.025632 -15.96936 3.812324 -3.49008 -31.29162 12.78384 92.00463 9.735048 -10.23321 -0 0 28.3461 -27.80108 14.43928 13.93208 4.279789 -24.12919 -10.10139 -95.01228 5.173749 35.66787 0 0 -3.214729 11.06737 16.93606 -1.503645
-45.21109 120.7033 819.1779 -10.88656 -8.660376 -48.49114 6.131519 16.34252 -1.390315 -0 17.84671 -0 -12.77105 -0.8256159 0.4193001 3.174648 -12.59656 -4.2392 -0 15.68884 -0 1.716472 -1.450542 17.48575 2.490544 -4.088961 7.124873 -1.378715 18.85506 -4.098158 1.840891 20.19349 2.229899 2.025632 -15.96936 3.812324 -3.49008 -31.29162 12.78384 92.00463 9.735048 -10.23321 -0 0 28.3461 -27.80108 14.43928 13.93208 4.279789 -24.12919 -10.10139 -95.01228 5.173749 35.66787 0 0 -3.214729 11.06737 16.93606 -1.503645
-49.08211 120.6686 824.0688 -11.03304 -8.472058 -49.47453 6.131519 16.34252 -1.390315 -0 17.84671 -0 -12.77105 -0.8256159 0.4193001 3.174648 -12.59656 -4.2392 -0 15.68884 -0 1.716472 -1.450542 17.48575 2.490544 -4.088961 7.124873 -1.378715 18.85506 -4.098158 1.840891 20.19349 2.229899 2.025632 -15.96936 3.812324 -3.49008 -31.29162 12.78384 92.00463 9.735048 -10.23321 -0 0 28.3461 -27.80108 14.43928 13.93208 4.279789 -24.12919 -10.10139 -95.01228 5.173749 35.66787 0 0 -3.214729 11.06737 16.93606 -1.503645
-53.03711 120.6338 828.8919 -11.17617 -8.281284 -50.45696 6.131519 16.34252 -1.390315 -0 17.84671 -0 -12.77105 -0.8256159 0.4193002 3.174648 -12.59656 -4.2392 -0 15.68884 -0 1.716472 -1.450542 17.48575 2.490544 -4.088961 7.124873 -1.378715 18.85506 -4.098158 1.840891 20.19349 2.229899 2.025632 -15.96936 3.812324 -3.49008 -31.29162 12.78384 92.00463 9.735048 -10.23321 -0 0 28.3461 -27.80108 14.43928 13.93208 4.279789 -24.12919 -10.10139 -95.01228 5.173749 35.66787 0 0 -3.214729 11.06737 16.93606 -1.503645
-57.07489 120.5991 833.646 -11.3159 -8.088111 -51.43843 6.131519 16.34252 -1.390315 -0 17.84671 -0 -12.77105 -0.8256159 0.4193002 3.174648 -12.59656 -4.2392 -0 15.68884 -0 1.716472 -1.450542 17.48575 2.490544 -4.088961 7.124873 -1.378715 18.85506 -4.098158 1.840891 20.19349 2.229899 2.025632 -15.96936 3.812324 -3.49008 -31.29162 12.78384 92.00463 9.735048 -10.23321 -0 0 28.3461 -27.80108 14.43928 13.93208 4.279789 -24.12919 -10.10139 -95.01228 5.173749 35.66787 0 0 -3.214729 11.06737 16.93606 -1.503645
-61.19425 120.5644 838.3296 -11.4522 -7.892599 -52.41896 6.131519 16.34252 -1.390315 -0 17.84671 -0 -12.77105 -0.8256159 0.4193002 3.174648 -12.59656 -4.2392 -0 15.68884 -0 1.716472 -1.450542 17.48575 2.490544 -4.088961 7.124873 -1.378715 18.85506 -4.098158 1.840891 20.19349 2.229899 2.025632 -15.96936 3.812324 -3.49008 -31.29162 12.78384 92.00463 9.735048 -10.23321 -0 0 28.3461 -27.80108 14.43928 13.93208 4.279789 -24.12919 -10.10139 -95.01228 5.173749 35.66787 0 0 -3.214729 11.06737 16.93606 -1.503645
-65.39395 120.5297 842.9413 -11.58504 -7.694806 -53.39855 6.131519 16.34252 -1.390315 -0 17.84671 -0 -12.77105 -0.8256159 0.4193002 3.174648 -12.59656 -4.2392 -0 15.68884 -0 1.716472 -1.450542 17.48575 2.490544 -4.088961 7.124873 -1.378715 18.85506 -4.098158 1.840891 20.19349 2.229899 2.025632 -15.96936 3.812324 -3.49008 -31.29162 12.78384 92.00463 9.735048 -10.23321 -0 0 28.3461 -27.80108 14.43928 13.93208 4.279789 -24.12919 -10.10139 -95.01228 5.173749 35.66787 0 0 -3.214729 11.06737 16.93606 -1.503645
-69.67275 120.4949 847.4797 -11.71439 -7.494793 -54.37722 6.131519 16.34252 -1.390315 -0 17.84671 -0 -12.77105 -0.8256159 0.4193002 3.174648 -12.59656 -4.2392 -0 15.68884 -0 1.716472 -1.450542 17.48575 2.490544 -4.088961 7.124873 -1.378715 18.85506 -4.098158 1.840891 20.19349 2.229899 2.025632 -15.96936 3.812324 -3.49008 -31.29162 12.78384 92.00463 9.735048 -10.23321 -0 0 28.3461 -27.80108 14.43928 13.93208 4.279789 -24.12919 -10.10139 -95.01228 5.173749 35.66787 0 0 -3.214729 11.06737 16.93606 -1.503645
